<?xml version="1.0" standalone="no"?><!DOCTYPE svg PUBLIC "-//W3C//DTD SVG 1.1//EN" "http://www.w3.org/Graphics/SVG/1.1/DTD/svg11.dtd"><svg t="1568557207243" class="icon" viewBox="0 0 1024 1024" version="1.1" xmlns="http://www.w3.org/2000/svg" p-id="8631" xmlns:xlink="http://www.w3.org/1999/xlink" width="32" height="32"><defs><style type="text/css"></style></defs><path d="M522.04068 604.511997c-149.835563 0-271.731798-121.898281-271.731798-271.731798S372.205117 61.048401 522.04068 61.048401s271.731798 121.898281 271.731798 271.731798S671.876244 604.511997 522.04068 604.511997zM522.04068 116.316146c-119.359458 0-216.464053 97.104595-216.464053 216.464053s97.104595 216.464053 216.464053 216.464053 216.464053-97.104595 216.464053-216.464053S641.400139 116.316146 522.04068 116.316146z" p-id="8632"></path><path d="M867.461781 962.025507c-15.260565 0-27.633361-12.372795-27.633361-27.633361 0-95.904257-41.652655-186.91404-114.285906-249.688759-11.545964-9.980305-12.81384-27.431769-2.833535-38.97671 9.976212-11.550057 27.42256-12.825097 38.97671-2.837628 84.780919 73.28305 133.410476 179.528839 133.410476 291.503097C895.095141 949.651688 882.722346 962.025507 867.461781 962.025507z" p-id="8633"></path><path d="M152.439878 962.025507c-15.260565 0-27.633361-12.372795-27.633361-27.633361 0-212.370829 172.773995-385.14687 385.144824-385.14687 4.349051 0 8.6848 0.071631 12.998035 0.215918 15.251356 0.503467 27.210735 13.277398 26.707268 28.5308-0.503467 15.253402-13.389962 27.296693-28.532847 26.705222-3.710508-0.121773-7.43432-0.184195-11.172457-0.184195-181.894723 0-329.877079 147.984403-329.877079 329.880149C180.073238 949.651688 167.700443 962.025507 152.439878 962.025507z" p-id="8634"></path></svg>