<svg t="1611662727612" class="icon" viewBox="0 0 1024 1024" version="1.1" xmlns="http://www.w3.org/2000/svg" p-id="2763" width="200" height="200"><path d="M943.36 154.624c-6.042-3.02-12.083-6.042-18.074-6.042-9.062 0-18.073 3.021-24.115 9.063L705.178 329.523 545.382 76.237c-6.041-12.083-18.073-18.074-33.177-18.074-12.083 0-24.115 6.042-33.178 18.074L322.253 329.472 126.259 157.645c-6.041-6.042-15.053-9.063-24.115-9.063-6.042 0-15.053 3.021-21.094 6.042-12.084 9.062-21.095 24.115-18.074 42.189l93.491 542.771c3.021 18.074 12.083 33.178 30.157 33.178H843.93c6.041 0 24.115-3.021 27.136-33.178l93.49-542.771c2.97-18.074-6.092-36.199-21.196-42.189z m-138.7 542.72H222.72l-75.366-425.165L273.97 383.744l63.335 54.272 45.21-72.346 132.658-211.046 132.66 211.046 45.21 69.376 63.334-54.272L882.995 269.21 804.66 697.344z m42.24 168.858H180.53c-12.083 0-24.115 12.083-24.115 24.115v24.115c0 12.083 12.083 24.115 24.115 24.115h663.347c12.084 0 24.116-12.083 24.116-24.115v-24.115c3.02-15.053-9.063-24.115-21.095-24.115z" p-id="2764" fill=""></path></svg>