<?xml version="1.0" standalone="no"?><!DOCTYPE svg PUBLIC "-//W3C//DTD SVG 1.1//EN" "http://www.w3.org/Graphics/SVG/1.1/DTD/svg11.dtd"><svg t="1611469334612" class="icon" viewBox="0 0 1024 1024" version="1.1" xmlns="http://www.w3.org/2000/svg" p-id="3050" xmlns:xlink="http://www.w3.org/1999/xlink" width="200" height="200"><defs><style type="text/css"></style></defs><path d="M848.5 889.9h-673C114 889.9 64 839.9 64 778.4V245.6c0-61.5 50-111.5 111.5-111.5h673c61.5 0 111.5 50 111.5 111.5v532.8c0 61.5-50 111.5-111.5 111.5z m-673-701.1c-31.3 0-56.8 25.5-56.8 56.8v532.8c0 31.3 25.5 56.8 56.8 56.8h673c31.3 0 56.8-25.5 56.8-56.8V245.6c0-31.3-25.5-56.8-56.8-56.8h-673z" p-id="3051" fill=""></path><path d="M203.6 619.3h-7.9c-26.5 0-48.1-21.6-48.1-48.1v-7.9c0-26.5 21.6-48.1 48.1-48.1h7.9c26.5 0 48.1 21.6 48.1 48.1v7.9c0 26.5-21.6 48.1-48.1 48.1z m-7.9-78.9c-12.6 0-22.9 10.3-22.9 22.9v7.9c0 12.6 10.3 22.9 22.9 22.9h7.9c12.6 0 22.9-10.3 22.9-22.9v-7.9c0-12.6-10.3-22.9-22.9-22.9h-7.9zM433.2 504.5h-7.9c-26.5 0-48.1-21.6-48.1-48.1v-7.9c0-26.5 21.6-48.1 48.1-48.1h7.9c26.5 0 48.1 21.6 48.1 48.1v7.9c0 26.6-21.6 48.1-48.1 48.1z m-7.9-78.8c-12.6 0-22.9 10.3-22.9 22.9v7.9c0 12.6 10.3 22.9 22.9 22.9h7.9c12.6 0 22.9-10.3 22.9-22.9v-7.9c0-12.6-10.3-22.9-22.9-22.9h-7.9zM828.3 454.4h-7.9c-26.5 0-48.1-21.6-48.1-48.1v-7.9c0-26.5 21.6-48.1 48.1-48.1h7.9c26.5 0 48.1 21.6 48.1 48.1v7.9c0 26.5-21.6 48.1-48.1 48.1z m-7.9-78.9c-12.6 0-22.9 10.3-22.9 22.9v7.9c0 12.6 10.3 22.9 22.9 22.9h7.9c12.6 0 22.9-10.3 22.9-22.9v-7.9c0-12.6-10.3-22.9-22.9-22.9h-7.9zM656.7 673.7h-7.9c-26.5 0-48.1-21.6-48.1-48.1v-7.9c0-26.5 21.6-48.1 48.1-48.1h7.9c26.5 0 48.1 21.6 48.1 48.1v7.9c0 26.6-21.6 48.1-48.1 48.1z m-7.9-78.8c-12.6 0-22.9 10.3-22.9 22.9v7.9c0 12.6 10.3 22.9 22.9 22.9h7.9c12.6 0 22.9-10.3 22.9-22.9v-7.9c0-12.6-10.3-22.9-22.9-22.9h-7.9z" p-id="3052" fill=""></path><path d="M239.1 568.2c-4.4 0-8.7-2.3-11.1-6.5-3.4-6.1-1.2-13.8 4.9-17.2l154.6-86.1c6.1-3.3 13.8-1.2 17.2 4.9 3.4 6.1 1.2 13.8-4.9 17.2l-154.6 86.1c-1.9 1.1-4 1.6-6.1 1.6zM681.5 607.5c-2.7 0-5.4-0.9-7.7-2.6-5.5-4.3-6.5-12.2-2.3-17.7l122.8-158.7c4.3-5.5 12.2-6.5 17.7-2.3 5.5 4.3 6.5 12.2 2.3 17.7L691.5 602.6c-2.5 3.2-6.2 4.9-10 4.9zM619.7 612.9c-2.7 0-5.3-0.8-7.6-2.5L451.4 488.2c-5.5-4.2-6.6-12.1-2.4-17.7 4.2-5.6 12.1-6.7 17.7-2.4l160.6 122.1c5.5 4.2 6.6 12.2 2.4 17.7-2.5 3.3-6.3 5-10 5z" p-id="3053" fill=""></path></svg>