<svg t="1670039257450" class="icon" viewBox="0 0 1024 1024" version="1.1" xmlns="http://www.w3.org/2000/svg" p-id="4031" width="200" height="200">
  <path d="M480 842.666667v-95.872h64V842.666667h149.333333v-661.333334h-362.666666v661.333334h149.333333z m-213.333333-490.666667v-234.666667h490.666666v234.666667h256v554.666667H10.666667v-554.666667h256z m0 64h-192v426.666667h192v-426.666667z m490.666666 0v426.666667h192v-426.666667h-192zM405.333333 234.666667h64v64h-64v-64z m149.333334 0h64v64h-64v-64z m-149.333334 149.333333h64v64h-64v-64z m149.333334 0h64v64h-64v-64z m-149.333334 149.333333h64v64h-64v-64z m149.333334 0h64v64h-64v-64z" fill="#FFB695" p-id="4032"></path>
</svg>