<svg t="1607438077578" class="icon" viewBox="0 0 1024 1024" version="1.1" xmlns="http://www.w3.org/2000/svg" p-id="4435" width="200" height="200"><path d="M351.301198 959.767578c-0.491465 0-0.983954 0-1.504087-0.026621-10.552162-0.573376-19.874638-7.0044-24.1125-16.652471L249.984674 771.384965 77.801974 678.638361c-8.55661-4.60646-14.106068-13.327915-14.626202-23.002608-0.546755-9.675716 3.992129-18.941879 11.974339-24.474955l58.724943-40.635961c5.19417-3.624554 11.344649-5.260723 17.742909-4.933079l136.913945 8.667189L401.959972 469.378726 75.095845 242.103828c-7.846033-5.477786-12.357272-14.581151-11.946694-24.119666 0.409554-9.53954 5.71328-18.206729 14.024158-22.975987l89.098501-51.020206c6.970611-3.952197 15.282512-4.742637 22.855168-2.262786l393.352168 131.530356L755.34273 98.717904c20.176684-20.113203 48.253668-31.124066 79.17398-31.124067 33.053066 0 64.957333 12.918361 87.566769 35.457149 45.573136 45.379621 47.678244 122.999344 4.483593 166.089558L753.211 444.195242l117.173437 390.883581c2.215688 7.331019 1.286 15.235414-2.541283 21.885549l-51.151263 88.794407c-4.838882 8.394836-13.724159 13.709824-23.429568 14.008799-9.459677 0.054266-18.918329-4.496904-24.222056-12.564097l-216.551746-328.170605-129.122178 118.474795-2.815685 123.353609a27.951045 27.951045 0 0 1-3.717727 13.273649l-41.254388 71.62385c-5.003728 8.694834-14.298559 14.008799-24.277345 14.008799zM557.764602 548.334619c1.148799 0 2.26893 0.081911 3.41773 0.218087a28.018622 28.018622 0 0 1 19.984193 12.346009l209.635401 317.732094 22.49988-39.055081-118.487081-395.244309c-2.92524-9.757627-0.273377-20.331291 6.889724-27.581423l185.138945-186.937911c21.460636-21.395108 19.273617-63.748124-4.347418-87.296463-22.636057-22.566433-67.252884-24.583487-87.429567-4.469259L610.064665 324.848097a27.966404 27.966404 0 0 1-28.84285 6.868223L183.249876 198.632729 143.333707 221.500184 460.055226 441.71744a27.856848 27.856848 0 0 1 11.782872 19.758939 27.668453 27.668453 0 0 1-7.052522 21.857904L320.98293 641.68122c-5.741949 6.295871-13.970915 9.566161-22.527525 9.129985l-140.659318-8.884253-13.28696 9.184252 140.549762 75.713248a27.790295 27.790295 0 0 1 12.303006 13.326891l57.274098 129.895212 10.088342-17.552466 2.92524-128.122867a27.909066 27.909066 0 0 1 9.049099-19.896139l162.119954-148.754156a28.038076 28.038076 0 0 1 18.945974-7.386308z" fill="" p-id="4436"></path></svg>