<?xml version="1.0" standalone="no"?><!DOCTYPE svg PUBLIC "-//W3C//DTD SVG 1.1//EN" "http://www.w3.org/Graphics/SVG/1.1/DTD/svg11.dtd"><svg t="1571754057182" class="icon" viewBox="0 0 1024 1024" version="1.1" xmlns="http://www.w3.org/2000/svg" p-id="1761" xmlns:xlink="http://www.w3.org/1999/xlink" width="64" height="64"><defs><style type="text/css"></style></defs><path d="M820.358 961.352h-622.944c-57.24 0-103.824-46.53-103.824-103.698v-691.308c0-57.186 46.583-103.698 103.824-103.698h622.944c57.24 0 103.824 46.53 103.824 103.698v691.308c0 57.168-46.583 103.698-103.824 103.698zM197.414 131.777c-19.092 0.021-34.568 15.48-34.614 34.565v691.313c0 19.080 15.533 34.56 34.605 34.56h622.944c0.003 0 0.007 0 0.008 0 19.094 0 34.575-15.469 34.597-34.558v-691.31c-0.036-19.088-15.513-34.55-34.604-34.56h-622.936zM648.386 547.497h-381.997c-0.006 0-0.011 0-0.019 0-19.094 0-34.575-15.469-34.597-34.558 0-19.082 15.507-34.562 34.614-34.562h381.997c0.010 0 0.023 0 0.036 0 19.090 0 34.567 15.471 34.578 34.559 0 19.081-15.48 34.561-34.614 34.561zM749.933 753.443h-483.686c-0.007 0-0.018 0-0.027 0-19.093 0-34.573-15.476-34.578-34.568 0.010-19.090 15.488-34.56 34.578-34.56 0.009 0 0.020 0 0.028 0h483.686c0 0 0 0 0 0 19.088 0 34.56 15.473 34.56 34.56 0 19.088-15.473 34.56-34.56 34.56 0 0 0 0 0 0zM231.714 288.773c0.015 28.638 23.235 51.849 51.876 51.849 0.012 0 0.025 0 0.037 0 0.007 0 0.016 0 0.024 0 28.638 0 51.856-23.205 51.876-51.838-0.010-28.644-23.232-51.86-51.876-51.86-0.009 0-0.020 0-0.028 0-0.008 0-0.022 0-0.035 0-28.641 0-51.861 23.21-51.876 51.848zM456.002 288.773c0.015 28.638 23.235 51.849 51.876 51.849 0.012 0 0.025 0 0.038 0 0.008 0 0.021 0 0.035 0s51.856-23.205 51.876-51.838c-0.010-28.644-23.232-51.86-51.876-51.86-0.012 0-0.025 0-0.037 0-0.008 0-0.021 0-0.035 0-28.641 0-51.861 23.21-51.876 51.848zM681.092 288.773c0.015 28.638 23.235 51.849 51.876 51.849 0.012 0 0.025 0 0.037 0 0.008 0 0.022 0 0.035 0s51.856-23.205 51.876-51.838c-0.010-28.644-23.232-51.86-51.876-51.86-0.012 0-0.025 0-0.037 0-0.008 0-0.022 0-0.035 0-28.641 0-51.861 23.21-51.876 51.848z" p-id="1762"></path></svg>