<svg t="1612772505024" class="icon" viewBox="0 0 1024 1024" version="1.1" xmlns="http://www.w3.org/2000/svg" p-id="4117" width="200" height="200"><path d="M761.552593 87.608889h118.708148v632.225185h-118.708148zM540.444444 745.434074v105.244445H140.136296v93.108148H650.42963v-5.12h25.22074V669.582222h-59.543703a75.851852 75.851852 0 0 0-75.662223 75.851852z" fill="#FFB695" p-id="4118"></path><path d="M595.437037 434.062222a113.777778 113.777778 0 0 0 34.891852-81.351111 116.053333 116.053333 0 1 0-232.106667 0 113.777778 113.777778 0 0 0 34.891852 81.351111 167.253333 167.253333 0 0 0-92.918518 151.703704 29.013333 29.013333 0 0 0 58.026666 0 116.053333 116.053333 0 1 1 232.296297 0 29.013333 29.013333 0 0 0 58.026666 0 167.253333 167.253333 0 0 0-93.108148-151.703704z m-81.351111-23.134815a54.802963 54.802963 0 0 1-58.026667-58.026666 54.802963 54.802963 0 0 1 58.026667-58.026667 54.802963 54.802963 0 0 1 58.026667 58.026667 54.802963 54.802963 0 0 1-57.837037 58.026666z" fill="#FFFFFF" p-id="4119"></path><path d="M838.921481 46.838519H183.751111a75.851852 75.851852 0 0 0-75.851852 75.851851v777.481482a75.851852 75.851852 0 0 0 75.851852 75.851852h464.023704a34.891852 34.891852 0 0 0 23.134815-5.878519l237.985185-237.795555c5.878519-5.878519 5.878519-11.567407 5.878518-23.134815V122.69037a75.851852 75.851852 0 0 0-75.851852-75.851851z m-162.512592 821.285925v-92.349629a37.925926 37.925926 0 0 1 37.925926-37.925926h92.539259z m7.585185-198.542222a75.851852 75.851852 0 0 0-75.851852 75.851852v162.322963H183.751111a7.585185 7.585185 0 0 1-7.585185-7.585185v-777.481482a7.585185 7.585185 0 0 1 7.585185-7.585185h655.17037a7.585185 7.585185 0 0 1 7.585186 7.585185v546.891852z" fill="#FFFFFF" p-id="4120"></path></svg>